# xmcd
#
# Track frame offsets:
#	150
#	16452
#	25822
#	39385
#	50402
#	70817
#	88170
#	101020
#	118945
#	130070
#
# Disc length: 1929 seconds
#
# Revision: 7
# Processed by: cddbd v1.5.2PL0 Copyright (c) Steve Scherf et al.
# Submitted via: audiograbber 1.83.01
#
DISCID=8307870a
DTITLE=Vern Gosdin - Chiseled In Stone
DYEAR=1988
DGENRE=Oldies
TTITLE0=Do You Believe Me Now
TTITLE1=Tight As Twin Fiddles
TTITLE2=Is It Raining At Your House
TTITLE3=Set 'Em Up Joe
TTITLE4=There Ain't Nothing Wrong (Just Ain't Nothing Right)
TTITLE5=Chiseled In Stone
TTITLE6=Who You Gonna Blame It On This Time
TTITLE7=It's Not Over, Yet
TTITLE8=Nobody Calls From Vegas Just To Say Hello
TTITLE9=I Guess I Had Your Leavin' Coming
EXTD=
EXTT0=
EXTT1=
EXTT2=
EXTT3=
EXTT4=
EXTT5=
EXTT6=
EXTT7=
EXTT8=
EXTT9=
PLAYORDER=
